<?xml version="1.0" standalone="no"?>
<!DOCTYPE svg PUBLIC "-//W3C//DTD SVG 20010904//EN"
 "http://www.w3.org/TR/2001/REC-SVG-20010904/DTD/svg10.dtd">
<svg version="1.0" xmlns="http://www.w3.org/2000/svg"
 width="512.000000pt" height="512.000000pt" viewBox="0 0 512.000000 512.000000"
 preserveAspectRatio="xMidYMid meet">
<metadata>
Created by potrace 1.11, written by Peter Selinger 2001-2013
</metadata>
<g transform="translate(0.000000,512.000000) scale(0.100000,-0.100000)"
fill="#000000" stroke="none">
<path d="M1696 4350 c-114 -22 -276 -69 -276 -82 0 -4 -7 -8 -15 -8 -8 0 -15
-4 -15 -8 0 -4 -40 -30 -90 -56 -49 -27 -90 -54 -90 -60 0 -7 -14 -20 -31 -30
-40 -24 -190 -174 -208 -209 -8 -15 -30 -45 -48 -66 -89 -105 -212 -384 -244
-555 -6 -33 -14 -68 -17 -76 -11 -31 -20 -97 -28 -202 l-7 -86 -46 -18 c-25
-9 -53 -26 -62 -36 -9 -10 -21 -18 -27 -18 -18 0 -116 -72 -171 -127 -30 -29
-58 -53 -63 -53 -4 0 -8 -5 -8 -10 0 -6 -22 -39 -48 -74 -94 -122 -146 -238
-183 -410 -24 -115 -26 -346 -3 -455 19 -95 69 -248 92 -281 9 -14 26 -41 37
-61 39 -72 106 -159 145 -190 22 -18 40 -37 40 -43 0 -6 35 -33 78 -60 42 -28
84 -57 92 -67 22 -24 143 -65 261 -89 99 -20 131 -20 1878 -20 1711 0 1779 1
1851 19 110 28 185 58 219 89 33 29 34 30 99 80 23 19 42 38 42 42 0 5 20 30
45 56 25 25 45 51 45 58 0 7 15 33 32 57 39 53 72 127 103 234 42 141 47 196
43 435 -4 193 -8 237 -28 309 -29 110 -79 225 -130 301 -22 34 -40 64 -40 68
0 6 -28 37 -123 133 -21 22 -42 39 -46 39 -5 0 -23 14 -41 31 -36 35 -109 66
-220 94 -41 11 -78 24 -82 30 -5 6 -8 6 -8 -2 0 -8 -13 -13 -30 -13 -16 0 -30
5 -30 10 0 6 -7 10 -15 10 -8 0 -15 -4 -15 -10 0 -5 -11 -10 -25 -10 -25 0
-28 7 -51 105 -9 39 -86 221 -110 261 -11 17 -34 56 -52 86 -18 31 -74 98
-125 149 -103 105 -112 113 -179 152 -27 15 -48 32 -48 37 0 4 -17 14 -37 21
-21 6 -43 17 -49 24 -7 6 -56 23 -111 36 -130 32 -383 35 -506 5 l-78 -18 -30
28 c-16 15 -29 34 -29 42 0 13 -42 60 -145 164 -21 22 -52 46 -67 54 -15 8
-28 20 -28 27 0 6 -41 34 -90 62 -50 27 -90 53 -90 57 0 5 -7 8 -15 8 -8 0
-15 4 -15 8 0 13 -164 61 -285 82 -138 25 -313 25 -449 0z m-157 -544 c18 -19
32 -39 30 -44 -2 -5 -33 -33 -68 -61 -216 -172 -337 -460 -316 -748 l7 -92
-33 -5 c-19 -3 -50 -7 -69 -8 -34 -3 -35 -2 -44 47 -6 33 -5 97 2 185 21 263
98 445 256 609 65 67 170 151 190 151 7 0 27 -15 45 -34z m476 -786 c116 -79
220 -152 233 -163 21 -20 22 -26 22 -206 0 -252 24 -231 -274 -231 -222 0
-230 1 -253 22 l-23 21 0 339 0 338 32 20 c18 11 37 16 42 11 6 -4 106 -72
221 -151z m1438 -108 l97 -67 0 -794 0 -795 -22 -23 c-19 -20 -31 -23 -105
-23 l-83 0 -228 151 c-125 83 -231 155 -236 159 -4 5 -3 24 4 44 11 35 12 36
66 36 l54 0 0 770 0 770 32 20 31 19 146 -101 c80 -55 190 -130 244 -166z
m-541 -549 c16 -14 18 -34 18 -186 0 -161 -1 -172 -22 -194 l-21 -23 -309 0
-308 0 0 -352 c0 -347 0 -352 -22 -375 -19 -20 -31 -23 -102 -23 l-81 0 -235
156 c-129 86 -236 157 -237 158 -1 1 2 19 8 39 10 37 10 37 64 37 l55 0 0 367
c0 363 0 367 22 390 l21 23 565 0 c512 0 567 -2 584 -17z"/>
</g>
</svg>
